<?xml version="1.0" encoding="UTF-8" standalone="no"?>
<!DOCTYPE svg PUBLIC "-//W3C//DTD SVG 1.1//EN" "http://www.w3.org/Graphics/SVG/1.1/DTD/svg11.dtd">
<svg width="100%" height="100%" viewBox="0 0 60 60" version="1.1" xmlns="http://www.w3.org/2000/svg" xmlns:xlink="http://www.w3.org/1999/xlink" xml:space="preserve" xmlns:serif="http://www.serif.com/" style="fill-rule:evenodd;clip-rule:evenodd;stroke-linejoin:round;stroke-miterlimit:2;">
    <g id="Layer_2">
        <g id="Layer_9">
            <rect x="0" y="0" width="59.88" height="59.88" style="fill:#1E1E26;"/>
            <path d="M8.78,17.47L11.65,17.47L11.65,30.13L15.13,30.13L15.13,17.47L18.01,17.47L18.01,14.46L8.78,14.46L8.78,17.47Z" style="fill:white;fill-rule:nonzero;"/>
            <path d="M28.37,16.58C27.898,15.923 27.282,15.383 26.57,15C25.834,14.625 25.016,14.436 24.19,14.45C23.354,14.434 22.526,14.623 21.78,15C21.073,15.382 20.463,15.923 20,16.58C19.479,17.312 19.093,18.132 18.86,19C18.589,20.045 18.458,21.121 18.47,22.2C18.462,23.286 18.596,24.369 18.87,25.42C19.086,26.342 19.469,27.216 20,28C20.465,28.664 21.078,29.212 21.79,29.6C23.291,30.346 25.059,30.346 26.56,29.6C27.275,29.212 27.891,28.665 28.36,28C28.877,27.241 29.259,26.399 29.49,25.51C29.764,24.459 29.898,23.376 29.89,22.29C29.899,21.21 29.765,20.134 29.49,19.09C29.264,18.195 28.885,17.346 28.37,16.58ZM26.31,24.05C26.231,24.547 26.086,25.031 25.88,25.49C25.72,25.872 25.477,26.213 25.17,26.49C24.893,26.73 24.536,26.859 24.17,26.85C23.804,26.854 23.449,26.726 23.17,26.49C22.856,26.216 22.61,25.874 22.45,25.49C22.252,25.029 22.111,24.545 22.03,24.05C21.939,23.451 21.896,22.846 21.9,22.24C21.896,21.638 21.939,21.036 22.03,20.44C22.118,19.944 22.266,19.46 22.47,19C22.626,18.613 22.873,18.27 23.19,18C23.472,17.77 23.826,17.646 24.19,17.65C24.555,17.642 24.91,17.766 25.19,18C25.501,18.274 25.744,18.616 25.9,19C26.105,19.456 26.249,19.937 26.33,20.43C26.429,21.025 26.476,21.627 26.47,22.23C26.47,22.84 26.417,23.449 26.31,24.05Z" style="fill:white;fill-rule:nonzero;"/>
            <path d="M38.05,14.46L35.95,25.93L35.9,25.93L33.78,14.46L29.77,14.46L33.56,30.13L38.05,30.13L41.91,14.46L38.05,14.46Z" style="fill:white;fill-rule:nonzero;"/>
            <path d="M48.72,14.46L44.27,14.46L40.46,30.13L44,30.13L44.65,27.28L48.17,27.28L48.81,30.13L52.51,30.13L48.72,14.46ZM45.05,24.53L46.37,17.87L46.46,17.87L47.72,24.53L45.05,24.53Z" style="fill:white;fill-rule:nonzero;"/>
            <path d="M15.13,30.15L11.65,30.15L11.65,42.81L8.78,42.81L8.78,45.83L18.01,45.83L18.01,42.81L15.13,42.81L15.13,30.15Z" style="fill:rgb(255,205,31);fill-rule:nonzero;"/>
            <path d="M29.5,34.82C29.266,33.932 28.884,33.091 28.37,32.33C27.901,31.665 27.285,31.118 26.57,30.73C25.069,29.984 23.301,29.984 21.8,30.73C21.084,31.117 20.468,31.664 20,32.33C19.479,33.088 19.093,33.93 18.86,34.82C18.587,35.871 18.452,36.954 18.46,38.04C18.447,39.119 18.578,40.195 18.85,41.24C19.081,42.123 19.471,42.956 20,43.7C21.515,45.743 24.303,46.412 26.58,45.28C27.294,44.9 27.911,44.359 28.38,43.7C28.894,42.95 29.276,42.118 29.51,41.24C29.785,40.196 29.92,39.12 29.91,38.04C29.914,36.953 29.777,35.871 29.5,34.82ZM26.31,39.82C26.228,40.316 26.083,40.8 25.88,41.26C25.716,41.625 25.474,41.949 25.17,42.21C24.89,42.444 24.535,42.568 24.17,42.56C23.806,42.564 23.452,42.44 23.17,42.21C22.86,41.953 22.614,41.628 22.45,41.26C22.255,40.798 22.114,40.315 22.03,39.82C21.857,38.626 21.857,37.414 22.03,36.22C22.111,35.721 22.252,35.235 22.45,34.77C22.61,34.386 22.856,34.044 23.17,33.77C23.449,33.534 23.804,33.406 24.17,33.41C24.536,33.401 24.893,33.53 25.17,33.77C25.477,34.047 25.72,34.388 25.88,34.77C26.086,35.232 26.231,35.72 26.31,36.22C26.497,37.413 26.497,38.627 26.31,39.82Z" style="fill:rgb(255,205,31);fill-rule:nonzero;"/>
            <path d="M33.56,30.15L29.77,45.83L33.78,45.83L35.9,34.35L35.95,34.35L38.05,45.83L41.91,45.83L38.05,30.15L33.56,30.15Z" style="fill:rgb(255,205,31);fill-rule:nonzero;"/>
            <path d="M48.81,30.15L48.17,33L44.65,33L44,30.15L40.46,30.15L44.27,45.83L48.72,45.83L52.51,30.15L48.81,30.15ZM46.46,42.42L46.37,42.42L45.05,35.75L47.72,35.75L46.46,42.42Z" style="fill:rgb(255,205,31);fill-rule:nonzero;"/>
        </g>
    </g>
</svg>
